<?xml version="1.0" standalone="no"?>
<!DOCTYPE svg PUBLIC "-//W3C//DTD SVG 20010904//EN"
 "http://www.w3.org/TR/2001/REC-SVG-20010904/DTD/svg10.dtd">
<svg version="1.0" xmlns="http://www.w3.org/2000/svg"
 width="992.000000pt" height="992.000000pt" viewBox="0 0 992.000000 992.000000"
 preserveAspectRatio="xMidYMid meet">
<metadata>
Created by potrace 1.14, written by Peter Selinger 2001-2017
</metadata>
<g transform="translate(0.000000,992.000000) scale(0.100000,-0.100000)"
fill="#000000" stroke="none">
<path d="M1155 5440 c3 -5 8 -10 11 -10 2 0 4 5 4 10 0 6 -5 10 -11 10 -5 0
-7 -4 -4 -10z"/>
<path d="M1130 5430 c10 -7 -9 -10 -65 -11 -44 -1 -89 0 -100 1 -19 2 -19 1
-2 -17 12 -12 20 -14 25 -7 10 15 39 13 39 -3 0 -9 -4 -10 -13 -2 -8 7 -14 7
-18 0 -4 -6 -22 -9 -41 -7 -31 2 -40 -4 -36 -26 0 -4 -6 -5 -15 -1 -13 5 -13
7 -2 14 9 6 7 9 -9 9 -27 0 -28 -3 -6 -25 15 -16 15 -17 -9 -14 -28 4 -66 -25
-45 -35 6 -4 2 -4 -10 -2 -13 2 -28 -3 -35 -12 -7 -9 -8 -13 -2 -9 6 3 11 0
11 -8 0 -11 -5 -12 -20 -3 -11 5 -17 6 -14 1 8 -14 -12 -53 -28 -53 -14 0 -18
-14 -18 -62 0 -10 -6 -18 -15 -18 -12 0 -12 3 -1 18 13 15 12 16 -3 3 -13 -9
-18 -28 -18 -59 0 -29 -6 -52 -17 -64 -20 -22 -26 -115 -7 -115 13 0 13 15 1
35 -5 6 -4 12 2 12 5 0 8 13 6 30 -2 16 0 32 5 35 4 2 7 -22 6 -55 -2 -46 -7
-63 -22 -75 -18 -14 -18 -14 4 -10 14 2 22 -1 22 -11 0 -8 -6 -14 -12 -14 -10
0 -10 -2 -1 -8 7 -4 13 -33 15 -63 2 -36 7 -56 15 -56 9 0 10 4 2 13 -7 8 -7
14 1 19 5 3 11 4 11 1 2 -7 6 -41 8 -60 0 -7 9 -16 19 -18 11 -3 18 -16 20
-34 3 -36 13 -46 50 -47 17 -1 28 -5 26 -8 -9 -16 8 -37 27 -32 14 4 19 0 19
-16 0 -15 6 -21 23 -21 12 0 32 -3 45 -6 20 -6 21 -8 7 -18 -13 -9 -1 -12 57
-15 183 -9 347 -2 373 15 11 8 15 14 9 14 -5 0 -15 -5 -20 -10 -7 -7 -11 -6
-11 4 0 8 3 15 6 14 30 -3 94 4 86 10 -19 14 -17 34 4 27 18 -5 37 18 26 34
-2 4 2 8 10 8 10 0 11 -5 5 -17 -6 -12 -5 -17 5 -17 8 0 12 4 9 8 -2 4 2 14
10 22 8 8 12 18 8 23 -4 5 1 2 11 -5 15 -12 17 -11 17 7 0 12 5 24 10 27 6 3
10 12 10 18 0 7 -4 6 -11 -3 -9 -13 -10 -13 -6 0 2 8 12 14 21 14 16 -2 20 11
19 63 0 12 4 20 8 17 5 -3 9 0 9 7 0 7 3 9 6 6 4 -4 1 -13 -5 -21 -8 -10 -9
-16 -1 -21 5 -3 10 -5 11 -3 8 33 10 70 11 216 2 139 -1 175 -12 182 -8 5 -17
7 -20 5 -3 -2 -7 12 -8 32 -3 46 -9 54 -29 46 -12 -5 -15 -2 -10 10 3 9 2 19
-4 22 -5 4 -7 10 -4 15 3 4 -2 13 -10 20 -8 7 -15 9 -15 5 0 -4 -7 -2 -15 5
-8 6 -20 8 -26 4 -9 -5 -11 -1 -7 14 5 17 1 21 -21 24 -18 2 -25 8 -23 21 2 9
-2 17 -8 17 -6 0 -8 -6 -4 -12 6 -10 5 -10 -7 -1 -12 10 -43 16 -116 25 -16 2
-8 11 12 14 8 1 15 -2 15 -8 0 -12 21 -6 23 7 1 10 -17 12 -141 16 -34 1 -65
6 -68 10 -3 5 -11 9 -17 9 -7 0 -6 -4 3 -10z m415 -161 c-10 -15 -25 -10 -19
6 4 8 10 12 15 9 5 -3 7 -10 4 -15z m-292 -92 c9 -1 16 -6 15 -12 -2 -5 -9 -9
-15 -9 -7 1 -10 -2 -7 -7 3 -5 11 -9 17 -8 37 4 59 -2 53 -16 -5 -14 26 -40
36 -29 6 5 8 -10 11 -93 1 -29 5 -53 10 -53 4 0 5 -6 0 -12 -4 -7 -9 -26 -9
-43 -1 -16 -2 -42 -3 -57 -1 -21 -5 -25 -21 -21 -12 3 -20 2 -19 -3 4 -24 -3
-34 -26 -34 -23 0 -24 -2 -15 -20 10 -19 7 -20 -42 -21 -182 -5 -218 3 -238
57 -5 13 -16 24 -25 24 -16 0 -18 16 -17 150 0 129 0 131 20 128 11 -2 18 4
20 20 2 15 10 22 25 22 12 0 31 7 41 15 11 8 15 15 10 15 -6 0 -15 -5 -20 -10
-7 -7 -11 -6 -11 3 0 8 14 14 36 16 19 1 37 3 38 5 3 3 70 -1 136 -7z m-307
-184 c0 -12 -4 -23 -8 -23 -4 0 -8 -5 -8 -11 0 -5 4 -8 8 -5 5 3 8 -7 7 -22
-2 -44 -19 -31 -20 16 -1 23 2 42 8 42 5 0 5 6 -2 13 -8 10 -7 14 2 14 7 0 13
-11 13 -24z m451 12 c0 -6 -6 -12 -12 -12 -6 0 -12 6 -12 12 0 6 6 12 12 12 6
0 12 -6 12 -12z m-2 -67 c1 -21 -3 -35 -11 -35 -12 0 -13 21 -1 33 3 4 2 16
-4 26 -9 16 -8 19 2 16 7 -2 14 -20 14 -40z m-414 -145 c13 -16 12 -17 -3 -4
-10 7 -18 15 -18 17 0 8 8 3 21 -13z m149 -77 c0 5 11 10 24 10 14 0 22 -4 20
-8 -3 -4 -1 -8 5 -8 5 0 12 5 14 10 3 6 4 5 3 -2 -4 -19 -79 -16 -84 3 -3 11
-2 11 7 -1 6 -8 11 -10 11 -4z m100 4 c0 -5 -4 -10 -10 -10 -5 0 -10 5 -10 10
0 6 5 10 10 10 6 0 10 -4 10 -10z m-435 -89 c-6 -5 -25 10 -25 20 0 5 6 4 14
-3 8 -7 12 -15 11 -17z m555 -107 c0 -8 -19 -13 -24 -6 -3 5 1 9 9 9 8 0 15
-2 15 -3z"/>
<path d="M1025 4770 c3 -5 8 -10 11 -10 2 0 4 5 4 10 0 6 -5 10 -11 10 -5 0
-7 -4 -4 -10z"/>
<path d="M50 5404 c9 -11 10 -15 3 -10 -10 5 -13 -3 -14 -28 0 -47 0 -762 0
-821 l1 -45 303 2 302 3 -1 60 c-1 33 3 66 10 74 9 12 8 13 -3 7 -10 -7 -12 1
-10 40 l4 49 -161 3 c-152 2 -162 4 -180 25 -17 19 -17 20 -1 8 17 -13 18 -5
17 190 -1 139 -5 208 -13 218 -7 9 -8 12 -1 8 7 -4 11 11 11 44 1 45 -1 49
-15 37 -16 -12 -16 -11 -2 6 9 12 15 42 15 80 l1 61 -57 2 c-50 1 -57 -1 -53
-15 5 -15 4 -15 -6 1 -6 9 -18 17 -27 17 -12 0 -13 -3 -4 -13 8 -10 7 -14 -4
-14 -7 0 -13 5 -12 11 1 6 -16 12 -38 14 l-39 3 19 -23 c11 -12 13 -17 4 -10
-9 6 -19 8 -23 4 -4 -4 -6 -1 -4 7 2 8 -6 17 -17 19 -18 4 -18 3 -5 -14z m255
-14 c-3 -5 -12 -10 -18 -10 -7 0 -6 4 3 10 19 12 23 12 15 0z m1 -276 c1 -9 0
-13 -4 -10 -3 4 -7 14 -8 22 -1 9 0 13 4 10 3 -4 7 -14 8 -22z m0 -74 c0 -12
-4 -16 -9 -11 -5 5 -6 14 -3 20 10 15 12 14 12 -9z m0 -80 c0 -12 -4 -16 -9
-11 -5 5 -6 14 -3 20 10 15 12 14 12 -9z m0 -80 c0 -12 -4 -16 -9 -11 -5 5 -6
14 -3 20 10 15 12 14 12 -9z m-3 -75 c-3 -9 -8 -14 -10 -11 -3 3 -2 9 2 15 9
16 15 13 8 -4z"/>
<path d="M1721 5376 c-1 -23 -3 -148 -3 -278 -1 -167 -4 -238 -12 -238 -7 0
-7 -3 -1 -8 6 -4 11 -54 12 -112 1 -68 -1 -99 -7 -90 -6 9 -10 10 -10 3 0 -6
5 -15 11 -18 6 -4 10 -24 8 -44 -1 -20 -1 -49 0 -64 l1 -28 141 2 140 1 -18
21 c-17 21 -17 21 0 8 17 -14 18 -10 16 70 -1 46 -7 90 -13 98 -8 11 -8 13 2
7 9 -5 12 1 11 21 -3 42 2 80 8 66 2 -7 16 -13 29 -13 15 0 23 4 19 10 -4 6
-10 8 -15 5 -4 -3 -14 3 -21 13 -13 15 -12 16 4 3 9 -7 17 -10 17 -6 0 5 9 0
19 -9 11 -10 28 -19 38 -20 10 -2 19 -11 20 -22 6 -77 8 -84 20 -79 11 4 11 0
2 -18 -11 -20 -11 -21 5 -7 16 13 18 12 16 -5 -1 -11 -2 -33 -1 -48 1 -24 4
-26 20 -18 15 9 18 7 18 -12 1 -12 1 -32 2 -45 l1 -23 160 2 c148 2 160 3 160
21 0 11 -7 18 -18 18 -11 0 -18 8 -19 21 -1 12 -9 30 -19 40 -9 10 -18 32 -20
49 -5 39 -11 50 -30 50 -17 0 -19 26 -1 33 10 4 10 6 0 6 -7 1 -13 7 -13 15 0
8 -9 18 -20 21 -14 4 -20 15 -19 33 0 15 3 21 6 14 4 -10 8 -10 19 -1 8 6 14
17 14 23 0 7 -4 6 -9 -2 -7 -11 -9 -10 -14 3 -4 9 -3 13 2 10 5 -3 12 -1 15 4
3 5 15 7 26 4 15 -4 20 0 20 16 0 19 10 26 33 22 7 -1 11 33 9 79 -1 14 1 19
4 13 3 -7 12 -13 20 -13 11 0 13 22 11 118 -2 98 -5 117 -17 115 -10 -2 -17 6
-18 20 -5 48 -9 62 -20 62 -14 0 -27 14 -27 28 0 7 -6 12 -13 12 -13 0 -33 25
-27 35 2 3 -13 6 -33 8 -32 3 -52 5 -84 11 -5 0 -8 7 -8 14 0 8 -20 13 -57 15
l-57 3 20 -23 c11 -13 12 -17 3 -10 -9 6 -19 8 -23 4 -4 -4 -6 0 -4 8 2 11 -8
16 -37 18 l-39 3 19 -23 c11 -12 13 -17 4 -10 -9 6 -19 8 -23 4 -4 -4 -6 0 -4
8 2 11 -8 16 -37 18 l-39 3 19 -23 c11 -12 13 -17 4 -10 -9 6 -19 8 -23 4 -4
-4 -6 0 -4 8 2 11 -9 16 -45 18 -33 2 -47 0 -42 -8 3 -5 10 -8 15 -5 4 3 14
-3 21 -13 13 -15 12 -16 -3 -3 -10 7 -18 10 -18 6 0 -5 -8 -1 -18 8 -13 12
-35 16 -70 16 -53 -2 -53 -2 -35 -23 13 -15 13 -17 2 -8 -9 6 -19 8 -23 4 -4
-4 -6 0 -4 8 2 10 -5 15 -23 16 -24 1 -27 -3 -28 -40z m160 17 c13 -16 12 -17
-3 -4 -10 7 -18 15 -18 17 0 8 8 3 21 -13z m376 1 c-3 -3 -12 -4 -19 -1 -8 3
-5 6 6 6 11 1 17 -2 13 -5z m130 -50 c-9 -9 -28 6 -21 18 4 6 10 6 17 -1 6 -6
8 -13 4 -17z m80 -67 c0 -8 -6 -14 -14 -14 -9 0 -10 4 -2 14 6 7 12 13 14 13
1 0 2 -6 2 -13z m40 -82 c0 -8 -4 -12 -9 -9 -5 3 -6 10 -3 15 9 13 12 11 12
-6z m-307 -35 c0 -11 5 -20 11 -20 5 0 7 6 3 13 -5 8 -2 8 9 -2 11 -8 17 -28
17 -52 0 -34 -3 -39 -22 -40 -13 0 -17 -3 -10 -6 6 -2 12 -9 12 -14 0 -6 -4
-7 -10 -4 -5 3 -10 2 -10 -4 0 -6 -40 -9 -101 -8 l-100 2 -2 78 -2 77 103 0
c95 0 102 -1 102 -20z m-214 -46 c1 -9 0 -13 -4 -10 -3 4 -7 14 -8 22 -1 9 0
13 4 10 3 -4 7 -14 8 -22z m-3 -69 c-3 -9 -8 -14 -10 -11 -3 3 -2 9 2 15 9 16
15 13 8 -4z m524 -47 c-3 -8 -6 -5 -6 6 -1 11 2 17 5 13 3 -3 4 -12 1 -19z
m-521 -364 c1 -9 0 -13 -4 -10 -3 4 -7 14 -8 22 -1 9 0 13 4 10 3 -4 7 -14 8
-22z m1 -69 c0 -8 -4 -12 -9 -9 -5 3 -6 10 -3 15 9 13 12 11 12 -6z"/>
<path d="M2285 5411 c-3 -5 0 -13 6 -17 8 -5 9 -3 4 6 -6 10 -4 12 9 7 10 -4
15 -3 11 3 -8 13 -22 13 -30 1z"/>
<path d="M2594 5392 c-9 -13 -11 -22 -6 -18 7 4 10 -136 9 -434 l-2 -440 343
0 343 0 -3 108 c-2 74 -7 106 -15 105 -6 -1 -17 4 -23 12 -7 8 -19 15 -28 15
-12 0 -12 -4 4 -22 l19 -23 -23 20 c-21 17 -41 20 -138 22 -83 2 -113 -1 -108
-9 5 -8 3 -8 -7 -2 -8 5 -25 9 -39 10 -34 0 -49 11 -45 32 1 9 -5 26 -14 37
-15 18 -15 19 2 6 14 -11 17 -11 18 0 1 8 2 21 3 29 1 12 19 15 94 15 90 1
116 -5 91 -21 -8 -4 -9 -3 -5 4 4 7 2 12 -3 12 -6 0 -11 -5 -11 -11 0 -8 -6
-7 -17 2 -13 11 -17 11 -20 1 -3 -6 -10 -9 -16 -5 -21 13 -47 13 -47 1 0 -9
-3 -9 -12 0 -9 9 -15 9 -27 -1 -12 -9 -13 -9 -7 1 4 7 2 12 -4 12 -7 0 -10 -6
-7 -12 5 -17 349 -18 354 -2 2 7 -8 11 -27 10 -16 0 -30 -4 -30 -9 0 -4 -6 -5
-12 0 -21 12 -48 14 -48 2 0 -8 -4 -8 -13 0 -8 6 -17 8 -20 4 -4 -3 -7 -2 -7
4 0 6 28 9 70 8 39 -1 73 2 76 7 3 5 12 1 19 -9 7 -10 11 -22 8 -27 -4 -5 -1
-6 6 -2 9 6 9 11 0 22 -7 8 -7 14 -1 14 12 0 10 99 -2 119 -6 9 -5 12 1 8 7
-4 11 8 10 33 -1 36 -4 40 -26 41 -15 0 -103 0 -196 1 -170 0 -170 0 -182 24
-6 13 -7 21 -2 18 5 -3 9 7 8 23 -1 15 -1 34 0 41 1 9 48 12 201 12 l200 0 0
118 0 119 -31 1 c-31 1 -31 1 -12 -21 12 -14 13 -18 2 -9 -9 6 -19 8 -23 4 -4
-4 -6 0 -4 8 2 12 -9 15 -56 16 -53 1 -58 0 -41 -12 10 -8 14 -14 8 -14 -6 0
-16 7 -23 15 -8 10 -29 14 -67 14 -54 -2 -54 -2 -36 -23 13 -15 14 -17 2 -8
-9 6 -19 8 -23 4 -4 -4 -6 0 -4 8 2 12 -9 15 -56 16 -53 1 -58 0 -41 -12 10
-8 14 -14 8 -14 -6 0 -16 7 -23 15 -8 10 -29 14 -67 14 -54 -2 -54 -2 -36 -23
13 -15 14 -17 2 -8 -9 6 -19 8 -23 4 -4 -4 -6 0 -4 8 2 10 -6 16 -26 18 -18 2
-26 0 -21 -7 3 -6 10 -9 14 -7 4 3 8 -1 8 -9 0 -12 -4 -12 -20 2 -29 27 -74
25 -93 -5z m247 1 c13 -16 12 -17 -3 -4 -10 7 -18 15 -18 17 0 8 8 3 21 -13z
m103 9 c3 -5 -1 -9 -9 -9 -8 0 -12 4 -9 9 3 4 7 8 9 8 2 0 6 -4 9 -8z m137 -9
c13 -16 12 -17 -3 -4 -10 7 -18 15 -18 17 0 8 8 3 21 -13z m103 9 c3 -5 -1 -9
-9 -9 -8 0 -12 4 -9 9 3 4 7 8 9 8 2 0 6 -4 9 -8z m-157 -689 c0 -8 -4 -10
-12 -3 -7 5 -16 6 -20 2 -5 -4 -5 -2 -2 4 9 15 34 13 34 -3z m60 0 c0 -8 -4
-10 -12 -3 -7 5 -16 6 -20 2 -5 -4 -5 -2 -2 4 9 15 34 13 34 -3z"/>
<path d="M3356 5404 c-3 -8 0 -14 6 -14 7 0 7 -4 1 -12 -5 -7 -8 -32 -7 -56 2
-23 -1 -40 -5 -37 -5 3 -11 -2 -14 -10 -4 -9 -1 -12 7 -9 21 8 18 -137 -3
-153 -15 -12 -15 -13 0 -7 15 5 16 -22 17 -278 0 -156 1 -293 1 -305 1 -23 3
-23 132 -23 124 0 131 1 118 18 -11 14 -10 13 9 -2 17 -15 22 -16 22 -5 0 8
-6 21 -12 28 -10 11 -10 13 0 7 8 -5 12 0 12 14 0 14 -4 19 -12 14 -10 -6 -10
-4 0 7 6 7 12 34 12 59 0 25 -6 52 -12 59 -10 11 -10 13 0 7 8 -5 12 0 12 14
0 14 -4 19 -12 14 -10 -6 -10 -4 0 7 6 7 12 25 12 39 0 14 -6 32 -12 39 -11
11 -10 13 0 7 16 -9 14 52 -2 73 -9 12 -8 13 3 6 11 -6 13 -3 9 13 -4 13 -1
22 5 22 7 0 5 5 -3 10 -11 7 -11 10 -2 10 7 0 10 5 7 10 -4 6 -11 7 -17 4 -6
-4 -8 -2 -5 3 10 16 57 3 57 -16 0 -14 -2 -14 -10 -1 -5 8 -10 10 -10 4 0 -5
4 -14 10 -20 5 -5 10 -26 12 -47 2 -38 7 -44 23 -28 9 9 15 -26 18 -106 1 -23
17 -21 17 3 0 8 3 14 8 14 4 0 8 -19 9 -43 5 -104 6 -110 15 -93 5 9 14 14 19
10 6 -4 6 -11 -2 -20 -6 -8 -7 -14 -2 -14 5 0 10 -17 11 -37 1 -35 17 -57 34
-47 4 3 5 -2 1 -11 -4 -12 -8 -13 -13 -5 -5 9 -9 8 -12 -2 -5 -11 11 -14 73
-17 86 -3 85 -4 79 67 -1 12 4 22 10 22 6 0 8 -4 5 -10 -3 -5 -2 -10 3 -10 17
0 21 13 11 33 -8 14 -8 18 0 13 7 -5 11 2 11 16 0 13 6 30 13 37 6 8 7 11 2 8
-6 -3 -12 3 -12 14 -2 17 0 18 13 4 19 -19 21 -19 21 0 0 8 -6 16 -14 19 -7 3
-13 11 -13 18 0 9 3 9 10 -2 13 -21 18 -11 24 45 2 28 5 51 6 53 2 1 3 6 4 11
0 5 5 13 10 18 5 5 6 3 2 -4 -4 -7 -2 -13 3 -13 12 0 14 8 13 63 -1 30 2 37
16 35 11 -2 18 5 20 20 2 14 8 20 15 15 7 -4 5 2 -3 12 -14 17 -13 18 5 12 19
-7 19 -6 2 7 -10 8 -14 16 -10 19 21 13 29 -15 30 -108 1 -78 -3 -104 -15
-118 -14 -16 -14 -17 0 -12 13 5 16 -3 16 -50 0 -40 -4 -55 -13 -52 -6 3 -12
-1 -12 -8 0 -7 5 -11 12 -9 16 6 19 -67 3 -77 -10 -7 -10 -9 1 -9 11 0 11 -3
0 -17 -11 -13 -11 -15 -1 -9 9 5 13 3 11 -5 -6 -51 -9 -50 141 -48 130 2 140
4 140 21 0 13 -4 17 -12 12 -9 -5 -9 -2 1 9 11 14 11 20 0 34 -9 11 -10 14 -2
9 14 -8 13 50 -1 73 -6 10 -5 12 2 7 8 -5 12 1 12 14 0 14 -4 19 -12 14 -9 -5
-9 -2 1 9 11 14 11 20 0 34 -11 13 -11 15 -1 9 18 -11 11 35 -8 60 -14 18 -14
18 4 4 17 -13 18 -13 14 5 -2 11 -9 19 -14 18 -6 -1 -11 5 -11 12 0 11 4 12
14 4 10 -9 13 -3 13 33 0 24 -6 50 -12 57 -10 11 -10 13 0 7 8 -5 12 0 12 14
0 14 -4 19 -12 14 -10 -6 -10 -4 0 8 15 19 12 94 -4 91 -6 -1 -11 5 -11 12 0
11 4 12 14 4 10 -9 13 -3 13 33 0 24 -6 50 -12 57 -10 11 -10 13 0 7 8 -5 12
0 12 14 0 14 -4 19 -12 14 -10 -6 -10 -4 0 8 15 19 12 94 -4 91 -6 -1 -11 5
-11 12 0 11 4 12 14 4 10 -9 13 -7 13 10 0 15 -4 20 -12 15 -10 -6 -10 -4 -2
7 5 8 10 23 10 33 -1 17 -10 20 -61 24 l-59 4 19 -24 c11 -12 13 -17 4 -10 -9
6 -19 8 -23 4 -4 -4 -6 0 -4 8 2 11 -8 16 -37 18 l-39 3 19 -23 c11 -12 13
-17 4 -10 -9 6 -19 8 -23 4 -4 -4 -6 0 -4 8 2 11 -8 16 -37 18 l-39 3 19 -23
c11 -12 13 -17 4 -10 -9 6 -19 8 -23 4 -4 -4 -6 0 -4 8 2 12 -10 16 -54 18
-38 2 -58 -1 -58 -8 0 -6 6 -8 13 -4 9 6 9 5 -1 -8 -7 -8 -13 -33 -15 -56 -1
-22 -4 -39 -7 -37 -14 8 -28 -13 -32 -45 -3 -37 -18 -56 -29 -39 -3 6 -7 -20
-8 -58 -1 -53 -6 -72 -22 -89 -13 -14 -21 -36 -21 -58 0 -25 -5 -36 -14 -36
-16 0 -33 36 -29 61 2 9 -3 16 -11 16 -10 0 -11 -4 -3 -13 7 -8 7 -14 -1 -19
-5 -3 -11 -5 -11 -3 -1 3 -6 45 -10 100 -2 30 -6 35 -19 28 -12 -6 -17 -5 -17
5 0 8 5 11 10 8 6 -4 7 -1 1 8 -10 16 -14 35 -16 66 0 13 -7 28 -14 34 -16 13
-19 -2 -3 -18 8 -8 7 -13 -2 -18 -7 -5 -10 -4 -5 3 3 6 3 13 -2 16 -5 3 -9 30
-10 62 -1 83 -22 101 -114 101 -62 0 -69 -2 -53 -14 11 -7 14 -13 8 -13 -6 0
-16 7 -23 15 -8 10 -29 14 -67 14 -54 -2 -54 -2 -36 -23 13 -15 14 -17 2 -8
-9 6 -19 8 -23 4 -4 -4 -6 0 -4 8 4 21 -88 24 -96 4z m71 -11 c0 -9 -4 -10
-14 -2 -7 6 -13 12 -13 14 0 1 6 2 13 2 8 0 14 -6 14 -14z m134 0 c13 -16 12
-17 -3 -4 -10 7 -18 15 -18 17 0 8 8 3 21 -13z m103 9 c3 -5 -1 -9 -9 -9 -8 0
-12 4 -9 9 3 4 7 8 9 8 2 0 6 -4 9 -8z m72 -19 c-3 -3 -12 -1 -19 5 -8 7 -18
8 -22 4 -5 -4 -5 -1 -1 6 5 9 12 9 27 1 12 -6 18 -13 15 -16z m365 10 c13 -17
13 -17 -6 -3 -11 8 -22 16 -24 17 -2 2 0 3 6 3 6 0 17 -8 24 -17z m315 -11
c-17 -16 -18 -16 -5 5 7 12 15 20 18 17 3 -2 -3 -12 -13 -22z m-675 -35 c-10
-9 -11 -8 -5 6 3 10 9 15 12 12 3 -3 0 -11 -7 -18z m685 -73 c1 -9 0 -13 -4
-10 -3 4 -7 14 -8 22 -1 9 0 13 4 10 3 -4 7 -14 8 -22z m-431 -83 c-3 -6 -11
-11 -16 -11 -5 0 -4 6 3 14 14 16 24 13 13 -3z m426 -38 c13 -16 12 -17 -3 -4
-10 7 -18 15 -18 17 0 8 8 3 21 -13z m5 -119 c1 -9 0 -13 -4 -10 -3 4 -7 14
-8 22 -1 9 0 13 4 10 3 -4 7 -14 8 -22z m-790 4 c3 -4 -1 -5 -10 -4 -8 1 -18
5 -22 8 -3 4 1 5 10 4 8 -1 18 -5 22 -8z m35 -41 c-8 -8 -14 -7 -23 2 -11 10
-9 11 6 5 15 -6 17 -4 11 6 -6 9 -4 11 4 5 9 -5 10 -10 2 -18z m750 -84 c13
-16 12 -17 -3 -4 -17 13 -22 21 -14 21 2 0 10 -8 17 -17z m-800 -120 c13 -16
12 -17 -3 -4 -17 13 -22 21 -14 21 2 0 10 -8 17 -17z m0 -120 c13 -16 12 -17
-3 -4 -17 13 -22 21 -14 21 2 0 10 -8 17 -17z m3 -39 c3 -8 2 -12 -4 -9 -6 3
-10 10 -10 16 0 14 7 11 14 -7z"/>
<path d="M4880 5407 c0 -4 -5 -5 -12 -1 -7 5 -8 3 -2 -7 12 -19 15 -359 2
-359 -5 0 -6 4 -3 10 4 6 -1 7 -11 3 -11 -4 -13 -8 -6 -11 7 -2 10 -8 7 -13
-4 -5 0 -6 8 -3 11 4 14 -16 14 -111 1 -66 -3 -115 -9 -115 -5 0 -6 4 -3 10 4
6 -1 7 -11 3 -11 -4 -13 -8 -6 -11 7 -2 10 -8 7 -13 -4 -5 0 -6 8 -3 12 4 14
-17 15 -123 0 -70 1 -136 1 -145 1 -16 15 -18 139 -18 l138 0 2 31 c1 17 -3
38 -10 47 -10 12 -10 14 0 8 8 -5 12 0 12 14 0 14 -4 19 -12 14 -10 -6 -10 -4
0 7 6 7 12 25 12 39 0 14 -6 32 -12 39 -10 11 -10 13 0 7 8 -5 12 0 12 14 0
14 -4 19 -12 14 -10 -6 -10 -4 0 8 15 19 12 94 -4 91 -6 -1 -11 5 -11 12 0 12
3 12 14 3 12 -10 14 -5 11 28 -2 21 -8 38 -14 37 -6 -1 -11 5 -11 12 0 11 4
12 14 3 11 -9 13 2 11 68 -2 49 -7 78 -14 77 -6 -1 -11 5 -11 12 0 12 3 12 14
3 12 -10 14 -5 11 28 -2 21 -8 38 -14 37 -6 -1 -11 5 -11 12 0 12 3 12 14 3
12 -10 14 -5 11 28 -2 21 -8 38 -14 37 -6 -1 -11 5 -11 12 0 11 4 12 14 4 11
-9 13 4 11 78 l-2 89 -70 1 c-62 0 -68 -1 -51 -13 10 -8 14 -14 8 -14 -6 0
-16 7 -23 15 -9 11 -30 15 -76 13 -35 -1 -64 -6 -64 -11z m41 -14 c12 -16 12
-17 -2 -6 -9 7 -20 9 -24 5 -5 -4 -5 -1 -1 6 9 16 11 15 27 -5z m80 0 c13 -16
12 -17 -3 -4 -10 7 -18 15 -18 17 0 8 8 3 21 -13z m103 9 c3 -5 -1 -9 -9 -9
-8 0 -12 4 -9 9 3 4 7 8 9 8 2 0 6 -4 9 -8z m41 -22 c3 -18 2 -20 -10 -10 -8
6 -11 18 -8 26 7 18 12 13 18 -16z m3 -185 c-3 -3 -9 2 -12 12 -6 14 -5 15 5
6 7 -7 10 -15 7 -18z m0 -80 c-3 -3 -9 2 -12 12 -6 14 -5 15 5 6 7 -7 10 -15
7 -18z m0 -240 c-3 -3 -9 2 -12 12 -6 14 -5 15 5 6 7 -7 10 -15 7 -18z m-2
-81 c1 -9 0 -13 -4 -10 -3 4 -7 14 -8 22 -1 9 0 13 4 10 3 -4 7 -14 8 -22z
m-5 -121 c13 -16 12 -17 -3 -4 -10 7 -18 15 -18 17 0 8 8 3 21 -13z m0 -120
c13 -16 12 -17 -3 -4 -10 7 -18 15 -18 17 0 8 8 3 21 -13z"/>
<path d="M5276 5404 c-3 -8 0 -14 6 -14 7 0 7 -4 1 -12 -5 -7 -8 -32 -7 -56 2
-23 -1 -40 -5 -37 -5 3 -11 -2 -14 -10 -4 -9 -1 -12 7 -9 21 8 18 -137 -3
-153 -14 -12 -15 -13 0 -8 14 5 16 -5 16 -69 0 -42 -3 -73 -7 -71 -4 3 -10 -2
-13 -10 -4 -8 -1 -12 7 -9 17 7 20 -347 3 -358 -9 -6 -8 -8 2 -8 11 0 11 -3 0
-17 -11 -13 -11 -15 -1 -9 9 5 13 3 11 -5 -6 -49 -8 -49 139 -49 l138 0 2 52
c0 28 -4 59 -11 67 -9 12 -9 13 1 7 8 -5 12 0 12 14 0 14 -4 19 -12 14 -10 -6
-10 -4 0 8 15 19 12 94 -4 91 -6 -1 -11 5 -11 12 0 10 4 12 12 5 9 -7 14 -6
18 4 3 8 15 12 31 9 22 -5 25 -2 21 17 -2 13 -1 19 3 16 4 -4 7 -13 7 -19 0
-7 12 -13 27 -15 23 -3 26 0 23 19 -2 12 -1 18 3 15 4 -4 7 -13 7 -19 0 -7 13
-13 29 -15 21 -3 26 0 20 10 -6 10 -5 11 7 1 20 -16 97 -12 104 5 5 15 -7 16
-21 2 -7 -7 -11 -6 -11 3 0 10 16 14 51 16 80 3 91 6 94 28 2 15 8 19 23 16
14 -4 19 0 19 16 0 19 10 26 33 22 6 -1 11 44 10 86 -1 7 3 11 7 8 15 -9 18
20 4 36 -12 13 -12 16 1 16 8 0 12 -4 9 -8 -2 -4 0 -10 6 -14 5 -3 10 0 10 7
0 9 3 9 10 -2 6 -9 10 -10 10 -3 0 6 -4 14 -9 17 -4 3 -9 25 -9 48 -1 60 -8
83 -22 80 -6 -1 -9 2 -5 8 3 6 10 8 14 6 4 -3 8 1 8 9 0 8 -9 17 -19 21 -17 5
-23 31 -19 74 1 10 -4 7 -16 -7 l-18 -23 0 38 c0 31 -4 38 -22 40 -20 3 -26
11 -25 32 0 3 -16 6 -36 7 -55 3 -102 13 -102 22 0 4 7 8 15 8 8 0 15 -3 15
-7 0 -4 7 -7 15 -7 23 0 18 14 -7 20 -47 10 -120 8 -113 -3 3 -6 10 -8 15 -5
4 3 14 -3 21 -13 13 -15 12 -16 -3 -3 -10 7 -18 10 -18 6 0 -5 -8 -1 -18 8
-13 12 -35 16 -70 16 -53 -2 -53 -2 -35 -23 13 -15 13 -17 2 -8 -9 6 -19 8
-23 4 -4 -4 -6 0 -4 8 2 12 -9 15 -56 16 -53 1 -58 0 -41 -12 10 -8 14 -14 8
-14 -6 0 -16 7 -23 15 -8 10 -29 14 -67 14 -54 -2 -54 -2 -36 -23 13 -15 14
-17 2 -8 -9 6 -19 8 -23 4 -4 -4 -6 0 -4 8 4 21 -88 24 -96 4z m71 -11 c0 -9
-4 -10 -14 -2 -7 6 -13 12 -13 14 0 1 6 2 13 2 8 0 14 -6 14 -14z m134 0 c13
-16 12 -17 -3 -4 -17 13 -22 21 -14 21 2 0 10 -8 17 -17z m103 9 c3 -5 -1 -9
-9 -9 -8 0 -12 4 -9 9 3 4 7 8 9 8 2 0 6 -4 9 -8z m137 -9 c13 -16 12 -17 -3
-4 -10 7 -18 15 -18 17 0 8 8 3 21 -13z m226 -49 c-9 -9 -28 6 -21 18 4 6 10
6 17 -1 6 -6 8 -13 4 -17z m40 -31 c0 -9 -4 -10 -14 -2 -7 6 -13 12 -13 14 0
1 6 2 13 2 8 0 14 -6 14 -14z m-200 -147 c4 -6 9 -32 10 -58 3 -42 1 -48 -17
-48 -13 0 -20 -6 -19 -17 0 -11 3 -13 6 -5 2 6 9 12 15 12 6 0 5 -6 -2 -15
-11 -13 -34 -15 -119 -13 l-106 3 3 28 c2 15 -2 35 -10 44 -11 14 -11 15 0 9
10 -6 13 -2 12 15 -5 62 -10 60 110 58 70 -1 113 -6 117 -13z m-246 -93 c13
-16 12 -17 -3 -4 -10 7 -18 15 -18 17 0 8 8 3 21 -13z m489 -147 c0 -2 -7 -7
-16 -10 -8 -3 -12 -2 -9 4 6 10 25 14 25 6z m-80 -83 c0 -15 -2 -16 -10 -3 -8
12 -10 12 -10 1 0 -8 -3 -12 -6 -8 -8 7 4 27 17 27 5 0 9 -8 9 -17z m-404
-129 c1 -9 0 -13 -4 -10 -3 4 -7 14 -8 22 -1 9 0 13 4 10 3 -4 7 -14 8 -22z
m-3 -149 c-3 -9 -8 -14 -10 -11 -3 3 -2 9 2 15 9 16 15 13 8 -4z m2 -34 c3 -5
2 -12 -3 -15 -5 -3 -9 1 -9 9 0 17 3 19 12 6z"/>
<path d="M5765 5159 c-9 -14 -2 -20 14 -10 8 6 9 11 3 15 -6 3 -14 1 -17 -5z"/>
<path d="M6130 5404 c9 -11 10 -15 3 -10 -9 5 -13 -2 -14 -26 -1 -50 -1 -766
0 -821 l1 -47 345 0 c190 1 345 3 345 5 0 2 -7 11 -16 19 -14 15 -13 16 6 16
13 0 18 -4 15 -11 -4 -6 2 -5 13 2 11 7 18 19 15 28 -3 12 -2 12 7 -1 14 -22
27 -23 27 -3 0 8 -5 15 -11 15 -6 0 -5 4 3 9 8 5 20 7 27 4 17 -6 22 6 26 63
2 31 8 51 15 51 8 0 9 -6 3 -17 -6 -11 -5 -17 3 -17 9 0 12 23 12 74 0 67 -6
86 -23 67 -4 -4 0 -3 8 1 13 7 13 6 2 -7 -9 -11 -9 -18 -2 -21 6 -3 5 -4 -2
-3 -7 2 -13 14 -14 27 -1 13 -2 41 -2 61 -1 21 -5 37 -9 37 -21 -3 -31 3 -36
20 -3 13 -15 21 -37 23 -22 2 -34 9 -36 21 -2 18 11 23 20 8 4 -5 1 -12 -4
-14 -6 -3 -5 -4 1 -3 7 1 13 10 15 20 5 34 14 48 29 42 11 -4 15 2 15 19 0 18
5 25 20 25 11 0 20 5 20 11 0 5 -6 7 -12 3 -9 -5 -8 -2 1 9 10 12 13 42 12
100 -4 117 -4 117 -21 114 -9 -1 -15 6 -15 18 0 13 -8 21 -22 23 -15 2 -23 10
-23 23 0 15 -7 19 -37 20 -65 1 -82 5 -101 22 -13 12 -35 16 -70 16 -53 -2
-53 -2 -35 -23 13 -15 13 -17 2 -8 -9 6 -19 8 -23 4 -4 -4 -6 0 -4 8 2 12 -9
15 -56 16 -53 1 -58 0 -41 -12 10 -8 14 -14 8 -14 -6 0 -16 7 -23 15 -7 8 -23
15 -36 15 -18 0 -22 -5 -19 -21 3 -12 1 -18 -3 -15 -4 4 -7 13 -7 19 0 7 -18
13 -40 15 l-39 3 19 -23 c11 -12 13 -17 4 -10 -9 6 -19 8 -23 4 -4 -4 -6 0 -4
8 2 11 -8 16 -37 18 l-39 3 19 -23 c11 -12 13 -17 4 -10 -9 6 -19 8 -23 4 -4
-4 -6 0 -4 8 2 11 -8 16 -37 18 l-39 3 19 -23 c11 -12 13 -17 4 -10 -9 6 -19
8 -23 4 -4 -4 -6 -1 -4 7 2 8 -6 17 -17 19 -18 4 -18 3 -5 -14z m311 -11 c13
-16 12 -17 -3 -4 -17 13 -22 21 -14 21 2 0 10 -8 17 -17z m103 9 c3 -5 -1 -9
-9 -9 -8 0 -12 4 -9 9 3 4 7 8 9 8 2 0 6 -4 9 -8z m137 -9 c13 -16 12 -17 -3
-4 -10 7 -18 15 -18 17 0 8 8 3 21 -13z m140 -40 c13 -16 12 -17 -3 -4 -10 7
-18 15 -18 17 0 8 8 3 21 -13z m-359 -148 c3 0 9 -3 13 -7 4 -3 0 -5 -9 -4 -9
1 -22 8 -29 16 -10 10 -9 11 3 4 8 -5 18 -9 22 -9z m43 -8 c0 -7 13 -13 29
-15 21 -3 26 0 21 10 -6 10 -5 11 6 1 7 -7 28 -13 46 -13 24 0 33 -5 34 -17 0
-10 2 -28 3 -40 2 -13 -1 -24 -6 -24 -4 -1 -12 -2 -17 -3 -16 -2 -37 -26 -23
-26 7 0 12 4 12 8 0 5 6 9 13 9 8 0 14 -5 14 -12 0 -7 -39 -11 -120 -12 -68 0
-113 3 -105 8 10 7 10 9 1 9 -7 0 -12 3 -12 8 4 23 -2 52 -10 48 -5 -4 -4 5 2
19 7 14 16 25 21 25 5 0 2 8 -5 18 -13 16 -13 16 7 0 11 -10 35 -18 52 -18 26
0 30 3 27 21 -3 12 -1 18 3 15 4 -4 7 -13 7 -19z m-115 -21 c0 -2 -8 -10 -17
-17 -16 -13 -17 -12 -4 4 13 16 21 21 21 13z m246 -331 c-6 -16 13 -35 28 -29
8 3 12 -9 13 -35 1 -35 -2 -40 -20 -38 -15 1 -22 -4 -22 -18 0 -19 -7 -20
-115 -20 -66 0 -114 4 -113 9 1 6 9 11 18 12 8 1 13 -2 9 -7 -3 -5 0 -9 5 -9
6 0 11 4 11 8 0 4 15 8 34 8 19 0 32 -4 30 -8 -3 -4 0 -8 5 -8 6 0 11 4 11 8
0 4 11 8 24 8 14 0 22 -4 20 -8 -3 -4 0 -8 5 -8 6 0 11 4 11 8 0 5 7 9 15 9 8
0 12 -4 9 -9 -3 -4 0 -8 6 -8 7 0 10 6 8 13 -4 9 -36 12 -119 12 -124 0 -121
-2 -109 60 4 21 1 34 -9 43 -9 8 -10 11 -3 7 6 -3 12 -2 12 4 0 5 48 9 121 9
93 0 119 -3 115 -13z m274 -229 c0 -2 -7 -7 -16 -10 -8 -3 -12 -2 -9 4 6 10
25 14 25 6z m-125 -104 c-3 -3 -11 0 -18 7 -9 10 -8 11 6 5 10 -3 15 -9 12
-12z"/>
<path d="M6410 4846 c0 -2 7 -7 16 -10 8 -3 12 -2 9 4 -6 10 -25 14 -25 6z"/>
<path d="M6451 4834 c0 -11 3 -14 6 -6 3 7 2 16 -1 19 -3 4 -6 -2 -5 -13z"/>
<path d="M6577 4836 c-4 -10 -1 -13 8 -9 8 3 12 9 9 14 -7 12 -11 11 -17 -5z"/>
<path d="M6654 4792 c3 -5 0 -13 -6 -15 -9 -4 -10 -6 -1 -6 17 -1 25 16 12 25
-7 4 -9 3 -5 -4z"/>
<path d="M6705 5410 c4 -6 11 -8 16 -5 5 4 9 2 9 -4 0 -5 9 -9 19 -8 13 1 17
5 11 12 -11 14 -63 18 -55 5z"/>
<path d="M7204 5402 c13 -13 19 -14 24 -5 7 10 12 10 25 0 15 -10 13 -12 -18
-13 -104 -4 -99 -3 -84 -21 11 -15 10 -14 -9 1 -19 16 -22 17 -22 3 0 -8 6
-18 13 -20 6 -3 -4 -6 -25 -6 -31 -1 -35 -4 -31 -21 3 -12 2 -20 -3 -19 -23 4
-34 -3 -34 -21 0 -11 -6 -20 -14 -20 -8 0 -18 -5 -22 -12 -5 -8 -1 -9 12 -5
18 7 18 6 1 -7 -16 -12 -18 -29 -16 -129 1 -89 4 -117 15 -121 12 -4 12 -2 4
14 -8 15 -8 20 3 20 7 0 13 -8 14 -17 5 -65 9 -73 32 -50 10 10 12 9 9 -3 -2
-8 5 -14 16 -15 11 0 21 -7 23 -15 4 -13 3 -13 -6 0 -8 12 -13 12 -23 2 -6 -6
-10 -12 -7 -13 2 0 13 -2 24 -5 11 -2 35 -5 53 -6 36 -1 49 -12 31 -24 -8 -4
-9 -3 -5 4 4 7 3 12 -2 12 -6 0 -12 -6 -15 -12 -3 -9 12 -14 52 -16 122 -6
142 -9 159 -25 11 -10 36 -17 61 -17 38 0 43 -2 38 -20 -3 -11 -1 -20 5 -20 5
0 7 -4 3 -9 -3 -5 -1 -13 5 -16 6 -4 9 -3 8 2 -2 4 1 9 6 11 6 1 11 -4 12 -11
1 -9 -7 -14 -20 -13 -16 1 -21 -4 -20 -21 2 -27 0 -28 -17 -6 -12 14 -12 16 0
8 9 -5 12 -4 7 3 -4 6 -13 9 -22 5 -11 -4 -12 -9 -4 -18 9 -11 -4 -13 -64 -12
-42 1 -80 7 -87 14 -9 9 -7 11 7 8 11 -2 19 -4 19 -5 0 -1 9 -3 21 -4 11 -1
21 3 21 9 0 6 -14 11 -31 11 -17 1 -53 2 -80 3 -43 1 -48 3 -43 21 4 16 0 20
-24 21 -49 2 -52 3 -56 19 -4 13 -3 13 6 0 10 -13 11 -13 11 0 0 13 1 13 11 0
9 -13 10 -13 7 0 -3 8 -20 16 -41 18 -32 3 -37 0 -38 -17 -1 -12 -3 -25 -4
-31 -1 -5 -3 -14 -4 -20 -2 -16 -18 -12 -18 5 0 8 5 11 10 8 6 -4 7 -1 3 6
-14 21 -22 5 -25 -45 0 -14 -5 -23 -9 -20 -16 10 -32 -11 -33 -45 -3 -68 0
-79 21 -79 17 0 24 -9 22 -30 0 -3 18 -6 41 -7 22 -2 46 -8 51 -14 8 -9 8 -10
0 -6 -6 3 -11 0 -11 -6 0 -13 94 -21 250 -21 42 0 77 -3 77 -8 0 -4 10 -12 23
-18 20 -10 20 -10 5 3 -23 18 -23 22 2 24 11 1 18 -2 15 -7 -3 -5 0 -12 6 -16
7 -4 9 -3 5 4 -9 15 4 21 53 23 23 2 45 7 47 11 3 5 10 6 15 3 5 -4 9 -1 9 5
0 7 -7 10 -15 6 -8 -3 -15 -1 -15 4 0 9 36 15 67 11 7 -1 10 5 7 13 -4 10 2
17 20 22 21 5 26 13 27 38 1 17 1 34 0 38 0 4 6 5 15 1 11 -4 12 -8 4 -13 -9
-5 -8 -9 2 -12 10 -4 14 9 17 51 9 128 3 263 -11 254 -13 -7 -38 17 -32 31 3
7 -1 13 -8 14 -7 1 -24 3 -37 4 -13 2 -26 10 -28 18 -4 13 -3 13 6 0 8 -12 13
-12 23 -2 6 6 10 12 8 13 -3 0 -14 2 -25 5 -11 2 -35 5 -53 6 -18 1 -35 5 -38
10 -3 4 -11 5 -17 1 -8 -5 -8 -2 0 9 11 13 6 15 -45 17 -31 2 -74 4 -95 5 -38
1 -56 17 -24 22 9 1 15 -1 12 -5 -2 -4 2 -8 10 -8 8 0 12 5 8 10 -3 5 4 6 18
2 13 -4 20 -4 16 1 -8 8 -26 10 -129 13 -37 1 -38 2 -38 41 0 43 7 46 79 40
15 -1 21 2 16 9 -3 6 -10 9 -15 6 -4 -3 -14 3 -21 13 -13 15 -12 16 4 3 9 -7
17 -10 17 -6 0 5 8 1 18 -8 11 -10 40 -17 78 -19 36 -1 61 -7 61 -14 0 -6 -6
-11 -13 -11 -7 0 -10 5 -7 10 3 6 1 7 -6 3 -17 -11 -6 -21 26 -24 27 -2 63 -8
73 -12 3 -1 10 -1 15 0 6 1 6 -2 2 -6 -12 -12 -38 -14 -31 -2 5 7 2 8 -5 4
-18 -12 -5 -20 34 -22 33 -1 42 12 20 28 -6 5 -3 8 8 9 31 3 35 4 44 13 5 5 3
6 -4 2 -15 -8 -18 10 -3 19 6 3 10 15 10 26 0 12 6 19 15 17 9 -2 21 8 28 22
8 14 19 24 25 22 7 -1 12 8 12 19 0 16 -5 20 -20 16 -12 -3 -20 -1 -19 6 3 22
-1 37 -8 36 -22 -4 -43 2 -38 10 11 19 -32 31 -116 34 -26 1 -35 5 -32 15 4 9
9 9 18 2 8 -7 12 -6 12 3 0 10 -42 13 -185 14 -172 1 -183 0 -168 -15z m309
-7 c-3 -9 -8 -14 -10 -11 -3 3 -2 9 2 15 9 16 15 13 8 -4z m152 -46 c-10 -15
-25 -10 -19 6 4 8 10 12 15 9 5 -3 7 -10 4 -15z m-18 -191 c-3 -8 -6 -5 -6 6
-1 11 2 17 5 13 3 -3 4 -12 1 -19z m97 -246 c3 -5 -1 -9 -9 -9 -8 0 -12 4 -9
9 3 4 7 8 9 8 2 0 6 -4 9 -8z m-557 -159 c0 -9 -4 -10 -14 -2 -7 6 -13 12 -13
14 0 1 6 2 13 2 8 0 14 -6 14 -14z m-116 -186 c-1 -12 -15 -9 -19 4 -3 6 1 10
8 8 6 -3 11 -8 11 -12z m99 -31 c0 -2 -7 -9 -15 -16 -13 -11 -14 -10 -9 4 5
14 24 23 24 12z"/>
<path d="M7840 5416 c-3 -2 -4 -74 -4 -160 1 -109 -2 -156 -10 -156 -7 0 -8
-3 -1 -8 7 -4 12 -71 13 -172 3 -211 3 -215 25 -214 12 1 17 -6 17 -27 0 -43
0 -43 20 -54 18 -10 20 -13 20 -35 0 -5 11 -10 24 -10 19 0 23 -4 19 -20 -4
-16 -2 -19 11 -14 9 3 14 10 11 14 -3 5 -1 11 4 15 6 3 8 -3 6 -15 -4 -19 5
-24 32 -21 6 1 15 -4 19 -10 4 -8 3 -9 -4 -5 -7 4 -10 2 -7 -6 6 -15 46 -19
203 -21 61 -1 112 -4 112 -7 0 -4 -5 -11 -11 -17 -9 -9 -7 -11 7 -9 11 2 18
10 17 18 -3 14 13 17 116 21 21 1 36 8 38 17 4 13 3 13 -6 0 -10 -13 -11 -13
-11 0 0 13 -1 13 -11 0 -9 -13 -10 -13 -6 0 2 9 16 15 38 16 27 0 35 5 37 22
2 12 7 22 12 22 5 0 7 -6 4 -14 -3 -8 -1 -17 5 -21 6 -3 9 0 5 8 -6 16 12 31
36 32 15 0 16 4 19 50 1 17 5 23 16 19 18 -7 25 20 28 103 1 34 4 61 7 61 28
-2 31 5 29 55 -1 28 -7 58 -13 66 -8 11 -8 13 0 8 17 -10 17 292 1 312 -7 9
-8 12 -1 8 8 -4 11 17 10 70 l-1 77 -48 2 -49 2 19 -21 c17 -21 17 -21 -8 0
-20 18 -36 22 -77 22 -53 -2 -53 -2 -35 -23 13 -15 13 -17 2 -8 -9 6 -19 8
-23 4 -4 -4 -6 0 -4 8 2 10 -5 15 -23 16 -32 1 -31 20 -31 -338 0 -142 -3
-257 -6 -257 -23 3 -33 -3 -30 -18 2 -11 -7 -25 -22 -35 -14 -10 -20 -18 -14
-18 5 0 15 5 20 10 7 7 11 6 11 -3 0 -16 -53 -22 -184 -18 -46 1 -53 4 -53 21
0 14 -6 20 -17 18 -18 -3 -21 6 -24 89 -1 22 -5 31 -12 27 -8 -4 -7 -2 1 7 6
7 12 34 12 59 0 25 -6 52 -12 59 -10 11 -10 13 0 7 8 -5 12 0 12 14 0 14 -4
19 -12 14 -10 -6 -10 -4 0 7 6 7 12 25 12 39 0 14 -6 32 -12 39 -10 11 -10 13
0 7 8 -5 12 0 12 14 0 14 -4 19 -12 14 -9 -5 -9 -2 1 9 11 14 11 20 0 34 -11
13 -11 15 -1 9 18 -11 11 35 -8 60 -14 18 -14 18 4 4 17 -13 18 -13 14 5 -2
11 -9 19 -14 18 -6 -1 -11 5 -11 12 0 11 4 12 14 4 10 -9 13 -7 13 10 0 15 -4
20 -12 15 -10 -6 -10 -4 -2 7 5 8 10 23 10 33 -1 17 -10 20 -61 24 l-59 4 19
-24 c11 -12 13 -17 4 -10 -9 6 -19 8 -23 4 -4 -4 -6 0 -4 8 2 11 -8 16 -37 18
l-39 3 19 -23 c11 -12 13 -17 4 -10 -9 6 -19 8 -23 4 -4 -4 -6 0 -4 8 2 11 -7
16 -32 18 -20 2 -38 1 -40 -2z m21 -23 c13 -16 12 -17 -3 -4 -10 7 -18 15 -18
17 0 8 8 3 21 -13z m235 -11 c-17 -16 -18 -16 -5 5 7 12 15 20 18 17 3 -2 -3
-12 -13 -22z m505 11 c13 -16 12 -17 -3 -4 -10 7 -18 15 -18 17 0 8 8 3 21
-13z m105 -10 c-4 -4 -12 -1 -19 7 -9 10 -9 11 1 6 7 -4 12 -2 13 6 0 11 2 11
6 0 3 -7 2 -16 -1 -19z m-5 -36 c-10 -9 -11 -8 -5 6 3 10 9 15 12 12 3 -3 0
-11 -7 -18z m5 -153 c1 -9 0 -13 -4 -10 -3 4 -7 14 -8 22 -1 9 0 13 4 10 3 -4
7 -14 8 -22z m0 -74 c0 -12 -4 -16 -9 -11 -5 5 -6 14 -3 20 10 15 12 14 12 -9z
m-605 -7 c13 -16 12 -17 -3 -4 -10 7 -18 15 -18 17 0 8 8 3 21 -13z m605 -68
c-1 -8 -5 -17 -8 -21 -5 -4 -4 16 1 34 3 9 9 -1 7 -13z m-605 -52 c13 -16 12
-17 -3 -4 -10 7 -18 15 -18 17 0 8 8 3 21 -13z m3 -39 c3 -8 2 -12 -4 -9 -6 3
-10 10 -10 16 0 14 7 11 14 -7z m602 -80 c1 -9 0 -13 -4 -10 -3 4 -7 14 -8 22
-1 9 0 13 4 10 3 -4 7 -14 8 -22z m-271 -74 c3 -5 2 -10 -4 -10 -5 0 -13 5
-16 10 -3 6 -2 10 4 10 5 0 13 -4 16 -10z m-565 -74 c0 -3 -4 -8 -10 -11 -5
-3 -10 -1 -10 4 0 6 5 11 10 11 6 0 10 -2 10 -4z m357 -11 c0 -8 -4 -12 -9 -9
-4 3 -8 9 -8 15 0 5 4 9 8 9 5 0 9 -7 9 -15z m28 5 c-3 -5 -1 -10 4 -10 6 0
11 4 11 8 0 5 7 9 15 9 8 0 12 -4 9 -9 -3 -4 0 -8 5 -8 6 0 11 5 11 11 0 5 5
7 11 4 6 -4 8 -10 5 -13 -7 -7 -68 -11 -79 -5 -7 4 0 23 9 23 3 0 2 -4 -1 -10z
m372 -115 c0 -8 -4 -15 -8 -15 -11 0 -20 16 -12 24 11 11 20 7 20 -9z"/>
<path d="M8834 5392 c-9 -13 -11 -22 -6 -18 15 9 12 -134 -2 -153 -8 -11 -8
-13 0 -8 14 8 14 -290 0 -312 -6 -9 -5 -12 1 -8 7 5 11 -17 11 -62 0 -64 -2
-69 -20 -66 -12 3 -17 1 -14 -3 4 -4 13 -7 19 -7 9 0 12 -34 12 -115 0 -81 -3
-115 -12 -115 -6 0 -15 -3 -19 -7 -3 -4 3 -6 15 -3 11 2 21 -1 21 -6 0 -6 55
-9 141 -8 l140 1 -18 21 c-16 19 -16 20 0 8 15 -12 17 -11 17 8 0 15 -4 20
-12 15 -10 -6 -10 -4 -2 7 6 8 12 72 13 148 3 129 2 134 -16 121 -17 -14 -17
-14 -2 5 9 11 15 35 14 53 -1 19 4 40 11 47 11 11 11 14 0 18 -7 3 -18 1 -23
-4 -6 -6 -10 -4 -10 5 0 8 8 13 18 11 12 -3 16 2 13 18 -2 12 -2 16 2 9 3 -6
11 -9 16 -6 7 4 8 2 4 -4 -4 -7 -3 -12 2 -12 4 0 9 -21 11 -47 2 -52 7 -63 24
-63 8 0 8 3 -1 12 -7 7 -12 16 -12 22 0 15 29 -27 30 -42 0 -8 -5 -10 -12 -6
-10 6 -10 5 -2 -7 10 -11 22 -63 24 -101 0 -4 7 -5 15 -2 14 6 17 -10 18 -97
0 -9 5 -16 12 -16 6 0 12 6 12 13 0 7 -5 10 -11 7 -6 -4 -5 1 3 10 7 9 14 17
15 17 1 0 2 -17 3 -37 2 -80 7 -103 22 -100 7 1 16 -4 18 -10 3 -7 0 -13 -7
-13 -6 0 -8 5 -5 10 9 15 -1 12 -14 -4 -9 -11 3 -14 69 -15 75 -2 80 -1 80 18
0 12 6 21 13 21 7 0 8 3 2 8 -5 4 -11 18 -13 32 -2 22 -1 23 8 8 13 -21 32
-24 29 -5 -1 6 -1 35 0 63 1 43 4 52 19 50 13 -1 18 8 20 39 2 22 9 46 15 54
7 8 7 12 2 9 -6 -4 -11 3 -12 15 0 12 1 17 4 10 10 -26 31 0 33 40 3 74 4 75
22 72 10 -2 18 2 18 10 0 7 8 12 18 11 16 -3 17 -21 17 -230 l0 -227 141 2
141 2 0 49 c1 44 -1 48 -15 36 -15 -12 -16 -11 -2 6 8 10 15 43 17 73 2 50 1
54 -15 42 -16 -13 -16 -12 -1 6 14 17 17 54 18 234 2 206 2 214 -16 200 -17
-13 -17 -13 -3 5 8 10 15 43 17 73 2 50 1 54 -15 41 -16 -12 -16 -11 -2 6 9
12 15 42 15 80 l1 61 -57 2 c-50 1 -57 -1 -53 -15 5 -15 4 -15 -6 1 -6 9 -18
17 -27 17 -12 0 -13 -3 -4 -13 8 -10 7 -14 -4 -14 -7 0 -13 5 -12 11 1 6 -16
12 -38 14 l-39 3 19 -23 c11 -12 13 -17 4 -10 -9 6 -19 8 -23 4 -4 -4 -6 0 -4
8 2 11 -9 16 -45 18 -33 2 -47 0 -42 -8 3 -5 10 -8 15 -5 4 3 14 -3 21 -13 13
-15 12 -16 -3 -3 -10 7 -18 10 -18 6 0 -5 -8 -1 -18 8 -24 22 -64 19 -56 -5 3
-10 2 -18 -3 -18 -4 0 -8 -18 -7 -40 0 -21 -2 -37 -6 -35 -15 9 -31 -14 -32
-48 -1 -29 -5 -36 -17 -32 -13 4 -17 -4 -19 -37 -1 -23 -8 -46 -15 -50 -7 -4
-7 -8 -2 -8 6 0 12 -12 13 -27 1 -24 0 -25 -9 -10 -18 31 -29 18 -29 -38 0
-37 -4 -55 -12 -55 -9 0 -8 -4 2 -10 12 -8 12 -10 1 -10 -9 0 -10 -4 -5 -13 5
-7 1 -4 -9 7 -18 20 -18 21 0 34 17 13 17 13 -2 10 -15 -2 -20 2 -19 18 1 11
-5 21 -12 21 -10 0 -11 -4 -4 -12 7 -9 7 -14 -2 -18 -10 -3 -14 11 -17 52 -5
90 -6 91 -16 92 -5 0 -11 -5 -13 -13 -2 -9 0 -8 7 2 8 12 10 11 8 -7 -1 -15
-5 -19 -12 -13 -11 9 -14 31 -18 108 -1 16 -6 21 -18 17 -16 -5 -21 15 -20 98
0 9 -5 17 -10 17 -6 0 -7 -6 -3 -12 5 -10 4 -10 -5 -2 -7 6 -14 20 -15 30 -2
16 -12 19 -56 20 -48 2 -52 0 -35 -12 10 -8 14 -14 8 -14 -6 0 -16 7 -23 15
-8 10 -29 14 -67 14 -54 -2 -54 -2 -36 -23 13 -15 14 -17 2 -8 -9 6 -19 8 -23
4 -4 -4 -6 0 -4 8 2 10 -6 16 -26 18 -18 2 -26 0 -21 -7 3 -6 10 -9 14 -7 4 3
8 -1 8 -9 0 -12 -4 -12 -20 2 -29 27 -74 25 -93 -5z m247 1 c13 -16 12 -17 -3
-4 -10 7 -18 15 -18 17 0 8 8 3 21 -13z m103 9 c3 -5 -1 -9 -9 -9 -8 0 -12 4
-9 9 3 4 7 8 9 8 2 0 6 -4 9 -8z m721 -12 c-3 -5 -12 -10 -18 -10 -7 0 -6 4 3
10 19 12 23 12 15 0z m-435 -195 c0 -8 -4 -15 -10 -15 -5 0 -7 7 -4 15 4 8 8
15 10 15 2 0 4 -7 4 -15z m434 -81 c3 -8 2 -12 -4 -9 -6 3 -10 10 -10 16 0 14
7 11 14 -7z m-277 -69 c0 -8 -4 -12 -9 -9 -5 3 -6 10 -3 15 9 13 12 11 12 -6z
m279 -5 c0 -12 -4 -16 -9 -11 -5 5 -6 14 -3 20 10 15 12 14 12 -9z m-283 -24
c8 3 13 -7 13 -25 1 -21 -3 -28 -15 -26 -11 1 -16 13 -17 36 -1 19 0 29 3 22
2 -7 10 -10 16 -7z m283 -56 c0 -12 -4 -16 -9 -11 -5 5 -6 14 -3 20 10 15 12
14 12 -9z m0 -80 c0 -12 -4 -16 -9 -11 -5 5 -6 14 -3 20 10 15 12 14 12 -9z
m-799 -85 c0 -8 -4 -12 -9 -9 -5 3 -6 10 -3 15 9 13 12 11 12 -6z m127 -36
c-3 -5 -10 -7 -15 -3 -5 3 -7 10 -3 15 3 5 10 7 15 3 5 -3 7 -10 3 -15z m-128
-39 c0 -12 -4 -16 -9 -11 -5 5 -6 14 -3 20 10 15 12 14 12 -9z m404 6 c0 -2
-7 -7 -16 -10 -8 -3 -12 -2 -9 4 6 10 25 14 25 6z m-40 -116 c0 -5 -2 -10 -4
-10 -3 0 -8 5 -11 10 -3 6 -1 10 4 10 6 0 11 -4 11 -10z"/>
<path d="M10 5365 c-10 -13 -11 -18 -1 -28 10 -9 11 -8 5 7 -5 12 -4 17 3 13
5 -3 10 0 10 8 0 19 -2 19 -17 0z"/>
<path d="M6090 5365 c-10 -13 -11 -18 -1 -28 10 -9 11 -8 5 7 -5 12 -4 17 3
13 5 -3 10 0 10 8 0 19 -2 19 -17 0z"/>
<path d="M4000 5325 c0 -9 5 -15 11 -13 6 2 11 8 11 13 0 5 -5 11 -11 13 -6 2
-11 -4 -11 -13z"/>
<path d="M4853 5325 c0 -8 4 -12 9 -9 5 3 6 10 3 15 -9 13 -12 11 -12 -6z"/>
<path d="M9493 5333 c-15 -5 -17 -23 -4 -23 5 0 11 7 15 15 3 8 4 15 3 14 -1
0 -8 -3 -14 -6z"/>
<path d="M3770 5296 c0 -2 7 -7 16 -10 8 -3 12 -2 9 4 -6 10 -25 14 -25 6z"/>
<path d="M8820 5291 c0 -7 -5 -9 -12 -5 -7 5 -8 3 -3 -5 5 -9 10 -10 18 -2 6
6 8 14 4 18 -4 3 -7 1 -7 -6z"/>
<path d="M9260 5290 c-8 -5 -12 -12 -9 -15 4 -3 12 1 19 10 14 17 11 19 -10 5z"/>
<path d="M7810 5210 c-9 -6 -10 -10 -3 -10 6 0 15 5 18 10 8 12 4 12 -15 0z"/>
<path d="M6930 5202 c0 -5 7 -9 15 -9 8 0 12 4 9 9 -3 4 -9 8 -15 8 -5 0 -9
-4 -9 -8z"/>
<path d="M1617 5163 c3 -7 6 -13 8 -13 2 0 5 6 8 13 3 8 -1 14 -8 14 -7 0 -11
-6 -8 -14z"/>
<path d="M1690 5165 c-10 -13 -11 -18 -1 -28 10 -9 11 -8 5 7 -5 12 -4 17 3
13 5 -3 10 0 10 8 0 19 -2 19 -17 0z"/>
<path d="M3921 5124 c0 -11 3 -14 6 -6 3 7 2 16 -1 19 -3 4 -6 -2 -5 -13z"/>
<path d="M4850 5130 c-9 -6 -10 -10 -3 -10 6 0 15 5 18 10 8 12 4 12 -15 0z"/>
<path d="M6096 5125 c-9 -26 -7 -32 5 -12 6 10 9 21 6 23 -2 3 -7 -2 -11 -11z"/>
<path d="M7810 5130 c-8 -5 -12 -12 -9 -15 4 -3 12 1 19 10 14 17 11 19 -10 5z"/>
<path d="M3930 5095 c-7 -9 -11 -18 -8 -20 3 -3 11 1 18 10 7 9 11 18 8 20 -3
3 -11 -1 -18 -10z"/>
<path d="M2956 5087 c3 -10 9 -15 12 -12 3 3 0 11 -7 18 -10 9 -11 8 -5 -6z"/>
<path d="M3061 5084 c0 -11 3 -14 6 -6 3 7 2 16 -1 19 -3 4 -6 -2 -5 -13z"/>
<path d="M3122 5084 c10 -10 20 -16 22 -13 3 3 -5 11 -17 18 -21 13 -21 12 -5
-5z"/>
<path d="M3171 5091 c-8 -5 -9 -11 -3 -15 5 -3 12 1 16 9 6 17 6 18 -13 6z"/>
<path d="M3236 5087 c3 -10 9 -15 12 -12 3 3 0 11 -7 18 -10 9 -11 8 -5 -6z"/>
<path d="M2890 5078 c0 -4 4 -8 9 -8 6 0 12 4 15 8 3 5 -1 9 -9 9 -8 0 -15 -4
-15 -9z"/>
<path d="M3087 5079 c7 -7 15 -10 18 -7 3 3 -2 9 -12 12 -14 6 -15 5 -6 -5z"/>
<path d="M1700 5052 c0 -6 -9 -9 -20 -7 -12 2 -18 0 -15 -6 4 -5 11 -7 16 -4
5 4 9 0 9 -7 0 -8 5 -6 11 5 6 10 8 21 5 24 -3 4 -6 1 -6 -5z"/>
<path d="M7572 5051 c4 -13 18 -16 19 -4 0 4 -5 9 -11 12 -7 2 -11 -2 -8 -8z"/>
<path d="M8420 5051 c0 -7 -4 -9 -10 -6 -6 4 -7 -1 -3 -11 6 -15 7 -15 15 1 6
9 7 19 4 22 -3 4 -6 1 -6 -6z"/>
<path d="M5250 5039 c0 -5 5 -7 10 -4 6 3 10 8 10 11 0 2 -4 4 -10 4 -5 0 -10
-5 -10 -11z"/>
<path d="M1655 4966 c0 -41 4 -63 11 -63 7 0 10 10 8 24 -3 14 -1 22 4 19 4
-2 8 6 8 20 0 13 -4 24 -9 24 -4 0 -6 4 -3 9 3 5 0 14 -7 19 -10 9 -13 -2 -12
-52z m18 9 c4 -8 3 -16 -1 -19 -4 -3 -9 4 -9 15 -2 23 3 25 10 4z"/>
<path d="M3325 5019 c-4 -6 -5 -12 -2 -15 2 -3 7 2 10 11 7 17 1 20 -8 4z"/>
<path d="M3890 5011 c0 -6 4 -13 10 -16 6 -3 7 1 4 9 -7 18 -14 21 -14 7z"/>
<path d="M6067 4997 c-3 -8 1 -14 8 -14 7 0 11 6 8 14 -3 7 -6 13 -8 13 -2 0
-5 -6 -8 -13z"/>
<path d="M8820 4971 c0 -7 -5 -9 -12 -5 -7 5 -8 3 -3 -5 5 -9 10 -10 18 -2 6
6 8 14 4 18 -4 3 -7 1 -7 -6z"/>
<path d="M6082 4956 c7 -8 15 -12 17 -11 5 6 -10 25 -20 25 -5 0 -4 -6 3 -14z"/>
<path d="M3331 4924 c0 -11 3 -14 6 -6 3 7 2 16 -1 19 -3 4 -6 -2 -5 -13z"/>
<path d="M4090 4924 c0 -6 8 -18 18 -25 9 -7 14 -9 10 -5 -4 5 -3 15 3 23 9 9
8 13 0 13 -6 0 -11 -6 -11 -12 0 -9 -4 -8 -10 2 -5 8 -10 10 -10 4z"/>
<path d="M8410 4919 c0 -5 5 -7 10 -4 6 3 10 8 10 11 0 2 -4 4 -10 4 -5 0 -10
-5 -10 -11z"/>
<path d="M9578 4918 c-7 -17 15 -19 29 -3 4 4 3 5 -4 2 -6 -4 -13 -2 -15 5 -3
8 -6 6 -10 -4z"/>
<path d="M7813 4885 c0 -8 4 -12 9 -9 5 3 6 10 3 15 -9 13 -12 11 -12 -6z"/>
<path d="M1650 4880 c0 -5 9 -8 20 -7 21 1 18 10 -5 13 -8 1 -15 -2 -15 -6z"/>
<path d="M6086 4877 c3 -10 9 -15 12 -12 3 3 0 11 -7 18 -10 9 -11 8 -5 -6z"/>
<path d="M8410 4860 c-9 -6 -10 -10 -3 -10 6 0 15 5 18 10 8 12 4 12 -15 0z"/>
<path d="M6950 4851 c0 -7 -5 -9 -12 -5 -7 5 -8 3 -3 -5 5 -9 10 -10 18 -2 6
6 8 14 4 18 -4 3 -7 1 -7 -6z"/>
<path d="M7787 4853 c-10 -10 -8 -23 4 -23 5 0 8 4 5 9 -4 5 0 12 6 14 7 3 8
6 2 6 -6 1 -14 -2 -17 -6z"/>
<path d="M7315 4840 c-14 -6 -16 -9 -5 -10 8 -1 28 -4 43 -6 19 -3 26 -1 22 6
-3 6 -11 8 -16 5 -5 -4 -9 -1 -9 4 0 13 -7 13 -35 1z"/>
<path d="M4059 4828 c-6 -20 -5 -37 1 -33 5 3 11 -1 13 -7 3 -8 6 -6 6 5 1 9
-5 17 -11 17 -9 0 -8 4 2 10 10 6 11 10 3 10 -7 0 -13 -1 -14 -2z"/>
<path d="M2580 4811 c0 -7 -4 -9 -10 -6 -6 4 -7 -1 -3 -11 6 -15 7 -15 15 1 6
9 7 19 4 22 -3 4 -6 1 -6 -6z"/>
<path d="M7781 4803 c7 -8 8 -13 1 -13 -5 0 -9 -13 -9 -28 2 -45 22 -33 23 13
2 29 -2 42 -12 42 -10 0 -11 -4 -3 -14z"/>
<path d="M8820 4811 c0 -7 -5 -9 -12 -5 -7 5 -8 3 -3 -5 5 -9 10 -10 18 -2 6
6 8 14 4 18 -4 3 -7 1 -7 -6z"/>
<path d="M5864 4801 c4 -5 1 -12 -4 -14 -6 -3 -5 -4 2 -3 15 3 23 26 8 26 -6
0 -9 -4 -6 -9z"/>
<path d="M8699 4803 c-5 -33 -2 -57 8 -60 8 -3 11 7 10 31 -1 20 -5 36 -9 36
-5 0 -9 -3 -9 -7z"/>
<path d="M9551 4794 c0 -11 3 -14 6 -6 3 7 2 16 -1 19 -3 4 -6 -2 -5 -13z"/>
<path d="M2084 4760 c2 -16 20 -14 24 2 3 10 2 10 -6 -1 -7 -9 -11 -10 -15 -2
-4 7 -5 8 -3 1z"/>
<path d="M7216 4762 c-3 -5 1 -9 9 -9 8 0 12 4 9 9 -3 4 -7 8 -9 8 -2 0 -6 -4
-9 -8z"/>
<path d="M3244 4733 c10 -11 36 -12 36 -2 0 5 -10 9 -22 9 -12 0 -18 -3 -14
-7z"/>
<path d="M5250 4730 c-9 -6 -10 -10 -3 -10 6 0 15 5 18 10 8 12 4 12 -15 0z"/>
<path d="M7376 4727 c3 -10 9 -15 12 -12 3 3 0 11 -7 18 -10 9 -11 8 -5 -6z"/>
<path d="M2566 4717 c3 -10 9 -15 12 -12 3 3 0 11 -7 18 -10 9 -11 8 -5 -6z"/>
<path d="M4126 4722 c-3 -5 1 -9 9 -9 8 0 15 4 15 9 0 4 -4 8 -9 8 -6 0 -12
-4 -15 -8z"/>
<path d="M9606 4717 c3 -10 9 -15 12 -12 3 3 0 11 -7 18 -10 9 -11 8 -5 -6z"/>
<path d="M654 4681 c0 -11 5 -17 13 -14 10 4 11 9 2 19 -15 18 -15 18 -15 -5z"/>
<path d="M726 4674 c-5 -14 -4 -15 9 -4 17 14 19 20 6 20 -5 0 -12 -7 -15 -16z"/>
<path d="M7856 4673 c-6 -14 -5 -15 5 -6 7 7 10 15 7 18 -3 3 -9 -2 -12 -12z"/>
<path d="M9490 4668 c0 -4 4 -8 9 -8 6 0 12 4 15 8 3 5 -1 9 -9 9 -8 0 -15 -4
-15 -9z"/>
<path d="M5250 4650 c-9 -6 -10 -10 -3 -10 6 0 15 5 18 10 8 12 4 12 -15 0z"/>
<path d="M6960 4650 c-13 -9 -13 -11 0 -20 18 -11 39 5 24 20 -6 6 -15 6 -24
0z"/>
<path d="M2566 4637 c3 -10 9 -15 12 -12 3 3 0 11 -7 18 -10 9 -11 8 -5 -6z"/>
<path d="M9606 4637 c3 -10 9 -15 12 -12 3 3 0 11 -7 18 -10 9 -11 8 -5 -6z"/>
<path d="M2460 4621 c0 -5 5 -13 10 -16 6 -3 10 -2 10 4 0 5 -4 13 -10 16 -5
3 -10 2 -10 -4z"/>
<path d="M1692 4611 c-11 -7 -11 -9 0 -14 9 -3 15 1 15 9 0 8 -1 14 -1 14 -1
0 -7 -4 -14 -9z"/>
<path d="M806 4602 c-3 -6 -1 -14 5 -17 14 -9 20 -2 10 14 -6 8 -11 9 -15 3z"/>
<path d="M2490 4576 c0 -2 8 -10 18 -17 15 -13 16 -12 3 4 -13 16 -21 21 -21
13z"/>
<path d="M4852 4571 c-11 -7 -11 -9 0 -14 9 -3 15 1 15 9 0 8 -1 14 -1 14 -1
0 -7 -4 -14 -9z"/>
<path d="M656 4558 c3 -5 10 -6 15 -3 13 9 11 12 -6 12 -8 0 -12 -4 -9 -9z"/>
<path d="M861 4554 c0 -11 3 -14 6 -6 3 7 2 16 -1 19 -3 4 -6 -2 -5 -13z"/>
<path d="M2169 4553 c-13 -16 -12 -17 4 -4 16 13 21 21 13 21 -2 0 -10 -8 -17
-17z"/>
<path d="M21 4524 c0 -11 3 -14 6 -6 3 7 2 16 -1 19 -3 4 -6 -2 -5 -13z"/>
<path d="M6101 4524 c0 -11 3 -14 6 -6 3 7 2 16 -1 19 -3 4 -6 -2 -5 -13z"/>
<path d="M1050 4482 c0 -4 9 -8 20 -9 11 -1 20 2 20 5 0 4 -9 8 -20 9 -11 1
-20 -2 -20 -5z"/>
<path d="M1107 4475 c-3 -6 14 -10 43 -10 35 -1 46 3 43 12 -6 16 -16 16 -31
1 -9 -9 -12 -9 -12 -1 0 14 -38 13 -43 -2z"/>
<path d="M1214 4473 c12 -13 18 -14 29 -5 8 7 17 9 20 5 4 -3 7 -1 7 5 0 6 -9
10 -19 9 -11 0 -17 -5 -15 -9 7 -11 -10 -10 -24 2 -7 5 -6 2 2 -7z"/>
<path d="M7246 4482 c-3 -5 1 -9 9 -9 8 0 15 4 15 9 0 4 -4 8 -9 8 -6 0 -12
-4 -15 -8z"/>
<path d="M7335 4480 c-3 -6 -12 -7 -18 -4 -7 4 -8 3 -4 -2 5 -5 37 -9 72 -9
51 -1 62 2 57 14 -4 10 -7 11 -10 3 -2 -7 -9 -9 -15 -5 -20 13 -47 13 -47 2 0
-8 -4 -8 -14 0 -10 8 -16 9 -21 1z"/>
<path d="M8166 4482 c-3 -5 1 -9 9 -9 8 0 15 4 15 9 0 4 -4 8 -9 8 -6 0 -12
-4 -15 -8z"/>
<path d="M8207 4477 c-4 -10 9 -13 49 -12 52 0 97 19 54 22 -11 1 -20 -3 -20
-9 0 -6 -6 -5 -16 3 -13 10 -17 10 -24 0 -5 -9 -10 -10 -14 -2 -10 15 -23 14
-29 -2z"/>
</g>
</svg>
